# xmcd CD database file
#
# Track frame offsets:
#	150
#	2640
#	8603
#	13965
#	20022
#	25290
#	32528
#	39410
#	47755
#	55538
#	61800
#	65882
#	72535
#	80327
#	88290
#	96335
#	104010
#	112230
#	120503
#	129107
#	138422
#	148332
#	154565
#	162932
#	169002
#	175995
#	186390
#	196877
#	206680
#	215165
#	223260
#	231365
#	240150
#	248035
#	255452
#	263495
#
# Disc length: 3620 seconds
#
# Revision: 0
# Processed by: cddbd v1.5.2PL0 Copyright (c) Steve Scherf et al.
# Submitted via: CDex 1.70beta2
#
DISCID=070e2224
DTITLE=Rainer Müller-Irion - Jazz/Rock_Eb
DYEAR=1997
DGENRE=Jazz
TTITLE0=Stimmtöne klingend 01
TTITLE1=Tune First 02
TTITLE2=Minor Mood 03
TTITLE3=Scarborough Fair 04
TTITLE4=Little Groove 05
TTITLE5=Is It True 06
TTITLE6=First Blues 07
TTITLE7=Greensleeves 08
TTITLE8=Bsp A-Moll Pentatonik mit Rhytmusvariationen 09
TTITLE9=Second Blues 10
TTITLE10=St. James Infirmary 11
TTITLE11=Fast Food 12
TTITLE12=Can The Circle Be Unbroken 13
TTITLE13=Improvisationsübung G-Moll-Pentatonik 14
TTITLE14=Improvisationsübung B-Moll Pentatonik 15
TTITLE15=Guantanamera 16
TTITLE16=Improvisationsübung C-Dur 17
TTITLE17=Improvisationsübung Bb-Dur 18
TTITLE18=Improvisationsübung A-Moll Pentatonik 19
TTITLE19=St. Thomas 20
TTITLE20=Tägliche Übungen3 21
TTITLE21=Lonely Child 22
TTITLE22=Tägliche Übungen4 23
TTITLE23=Blue Box 24
TTITLE24=Der Dreiklagcalypso 25
TTITLE25=Tägliche Übungen6 26
TTITLE26=Tägliche Übungen7 27
TTITLE27=Scarborough Fair (Variation) 28
TTITLE28=G#-Moll-Pentatonik 29
TTITLE29=Improvisationsübung B-Dur 30
TTITLE30=I Can't Fall Asleep 31
TTITLE31=Chromatic Blues 32
TTITLE32=Blues for H.H. 33
TTITLE33=Now's The Time 34
TTITLE34=The Entertainer 35
TTITLE35=Soul Food 36
EXTD=YEAR: 1997
EXTT0=
EXTT1=
EXTT2=
EXTT3=
EXTT4=
EXTT5=
EXTT6=
EXTT7=
EXTT8=
EXTT9=
EXTT10=
EXTT11=
EXTT12=
EXTT13=
EXTT14=
EXTT15=
EXTT16=
EXTT17=
EXTT18=
EXTT19=
EXTT20=
EXTT21=
EXTT22=
EXTT23=
EXTT24=
EXTT25=
EXTT26=
EXTT27=
EXTT28=
EXTT29=
EXTT30=
EXTT31=
EXTT32=
EXTT33=
EXTT34=
EXTT35=
PLAYORDER=
